<svg width="375" height="3544" viewBox="0 0 375 3544" fill="none" xmlns="http://www.w3.org/2000/svg">
<path d="M25.5682 -7C34.0909 82.6463 29.8295 208.151 0 261.939" stroke="#F1DED0" stroke-opacity="0.29" stroke-width="0.5" stroke-linecap="round"/>
<path d="M59.6591 -7C75.284 127.47 85.2272 428.681 0 557.772" stroke="#F1DED0" stroke-opacity="0.29" stroke-width="0.5" stroke-linecap="round"/>
<path d="M144.887 -7C137.784 226.081 99.7162 697.62 4.26172 719.136" stroke="#F1DED0" stroke-opacity="0.29" stroke-width="0.5" stroke-linecap="round"/>
<path d="M208.807 -7C197.443 244.01 140.625 783.681 4.26172 934.287" stroke="#F1DED0" stroke-opacity="0.29" stroke-width="0.5" stroke-linecap="round"/>
<path d="M285.511 -7C242.898 297.798 151.704 907.393 127.841 907.393C103.977 907.393 32.6704 1427.34 0 1687.32" stroke="#F1DED0" stroke-opacity="0.29" stroke-width="0.5" stroke-linecap="round"/>
<path d="M370.738 -7C157.67 808.782 -181.534 2660.88 166.193 3543" stroke="#F1DED0" stroke-opacity="0.29" stroke-width="0.5" stroke-linecap="round"/>
<path d="M0 3166.48C7.10227 3283.02 28.9773 3521.48 59.659 3542.99" stroke="#F1DED0" stroke-opacity="0.29" stroke-width="0.5" stroke-linecap="round"/>
<path d="M375 315.727C196.023 1059.79 -55.3972 2354.29 370.739 1579.74" stroke="#F1DED0" stroke-opacity="0.29" stroke-width="0.5" stroke-linecap="round"/>
<path d="M370.739 584.669C269.887 1006.01 89.4883 1983.15 370.739 1364.59" stroke="#F1DED0" stroke-opacity="0.29" stroke-width="0.5" stroke-linecap="round"/>
<path d="M370.738 1768C198.863 1893.5 -4.26155 2467.24 221.59 3543" stroke="#F1DED0" stroke-opacity="0.29" stroke-width="0.5" stroke-linecap="round"/>
<path d="M375 2090.73C264.204 2171.41 55.3976 2252.09 247.159 3516.11" stroke="#F1DED0" stroke-opacity="0.29" stroke-width="0.5" stroke-linecap="round"/>
<path d="M370.738 2413.46C288.352 2440.35 127.841 2278.99 272.727 3543" stroke="#F1DED0" stroke-opacity="0.29" stroke-width="0.5" stroke-linecap="round"/>
<path d="M370.739 2655.5C316.761 2718.25 204.545 2440.35 302.557 3543" stroke="#F1DED0" stroke-opacity="0.29" stroke-width="0.5" stroke-linecap="round"/>
<path d="M375 2930.06C338.884 2978.7 271.167 2608.99 329.855 3542.99" stroke="#F1DED0" stroke-opacity="0.29" stroke-width="0.5" stroke-linecap="round"/>
<path d="M362.216 3543H370.739" stroke="#F1DED0" stroke-opacity="0.29" stroke-width="0.5" stroke-linecap="round"/>
</svg>
