<svg width="50" height="50" viewBox="0 0 50 50" fill="none" xmlns="http://www.w3.org/2000/svg">
<path d="M29.6289 7.40233C29.6809 7.20371 29.772 7.01745 29.8968 6.85448C30.0217 6.69151 30.1778 6.55509 30.3561 6.45323C30.5344 6.35137 30.7311 6.28611 30.9349 6.26127C31.1388 6.23643 31.3455 6.25251 31.543 6.30858C34.4557 7.08978 37.1116 8.62359 39.244 10.756C41.3764 12.8884 42.9102 15.5443 43.6914 18.457C43.7475 18.6545 43.7636 18.8612 43.7387 19.065C43.7139 19.2688 43.6486 19.4656 43.5468 19.6439C43.4449 19.8221 43.3085 19.9783 43.1455 20.1032C42.9825 20.228 42.7963 20.3191 42.5977 20.3711C42.4643 20.4097 42.3263 20.4294 42.1875 20.4297C41.8426 20.4277 41.5081 20.3117 41.2361 20.0997C40.9641 19.8877 40.7698 19.5917 40.6836 19.2578C40.0338 16.8794 38.7751 14.7116 37.0317 12.9682C35.2884 11.2248 33.1205 9.96617 30.7422 9.31639C30.5418 9.26656 30.3535 9.17702 30.1883 9.05307C30.0232 8.92912 29.8846 8.77328 29.7808 8.59479C29.677 8.4163 29.61 8.21879 29.5839 8.01396C29.5578 7.80913 29.5731 7.60114 29.6289 7.40233ZM29.1211 15.3515C30.4431 15.7134 31.6481 16.4135 32.6173 17.3827C33.5865 18.3519 34.2865 19.5569 34.6484 20.8789C34.7316 21.2145 34.925 21.5124 35.1977 21.7249C35.4704 21.9374 35.8066 22.0522 36.1523 22.0508C36.2848 22.0521 36.4167 22.0323 36.543 21.9922C36.7434 21.9423 36.9317 21.8528 37.0968 21.7288C37.262 21.6049 37.4006 21.4491 37.5044 21.2706C37.6082 21.0921 37.6751 20.8946 37.7012 20.6897C37.7273 20.4849 37.712 20.2769 37.6562 20.0781C37.163 18.2217 36.1879 16.5286 34.8296 15.1704C33.4714 13.8121 31.7783 12.837 29.9219 12.3437C29.7181 12.2695 29.501 12.2385 29.2846 12.2527C29.0681 12.2669 28.857 12.3261 28.6646 12.4264C28.4723 12.5266 28.3029 12.6659 28.1674 12.8352C28.0318 13.0045 27.9329 13.2002 27.8771 13.4099C27.8213 13.6195 27.8098 13.8384 27.8432 14.0527C27.8767 14.2671 27.9544 14.4721 28.0714 14.6547C28.1884 14.8374 28.3422 14.9937 28.5229 15.1136C28.7036 15.2336 28.9073 15.3146 29.1211 15.3515ZM45.2344 34.1992C44.8889 36.8367 43.5973 39.259 41.5999 41.0158C39.6025 42.7725 37.035 43.7441 34.375 43.75C18.8672 43.75 6.25 31.1328 6.25 15.625C6.25586 12.9649 7.22749 10.3975 8.98422 8.4001C10.741 6.40267 13.1633 5.11113 15.8008 4.76561C16.4731 4.69106 17.1518 4.83262 17.7382 5.16976C18.3247 5.50689 18.7886 6.02208 19.0625 6.64061L22.9883 15.8008C23.1919 16.2762 23.2736 16.795 23.2258 17.3101C23.1781 17.8251 23.0024 18.3201 22.7148 18.75L19.4727 23.7109C20.9408 26.6904 23.3599 29.0957 26.3477 30.5469L31.25 27.2851C31.6795 26.9956 32.1757 26.8204 32.6917 26.776C33.2077 26.7315 33.7266 26.8194 34.1992 27.0312L43.3594 30.9375C43.9779 31.2114 44.4931 31.6753 44.8302 32.2617C45.1674 32.8482 45.3089 33.5268 45.2344 34.1992ZM42.1289 33.8086L32.9687 29.9023L28.0859 33.164C27.6367 33.4611 27.1182 33.6369 26.581 33.6746C26.0437 33.7122 25.5058 33.6104 25.0195 33.3789C21.3807 31.6187 18.4374 28.6891 16.6602 25.0586C16.4258 24.5739 16.3207 24.037 16.3549 23.4997C16.3891 22.9625 16.5616 22.4432 16.8555 21.9922L20.1172 17.0312L16.1914 7.87108C14.3065 8.11338 12.5746 9.03439 11.3199 10.4617C10.0652 11.8889 9.37374 13.7246 9.375 15.625C9.38017 22.2538 12.0158 28.6097 16.703 33.2969C21.3903 37.9842 27.7462 40.6198 34.375 40.625C36.2754 40.6262 38.111 39.9348 39.5383 38.6801C40.9656 37.4254 41.8866 35.6934 42.1289 33.8086Z" fill="#F5F5F5"/>
</svg>
